<svg height='100px' width='100px'  fill="#000000" version="1.1" xmlns="http://www.w3.org/2000/svg" xmlns:xlink="http://www.w3.org/1999/xlink" x="0px" y="0px" viewBox="0 0 100 91.588" enable-background="new 0 0 100 91.588" xml:space="preserve"><path fill="#000000" d="M48.885,91.588c-9.695,0-19.388-2.863-27.619-8.306C10.563,76.206,3.318,65.574,0.861,53.347
	c-2.351-11.702,0.163-24.171,6.897-34.212C14.271,9.424,23.999,2.887,35.152,0.728c10.645-2.061,21.949,0.304,31.011,6.486
	c8.723,5.948,14.549,14.777,16.409,24.857c1.77,9.59-0.449,19.728-6.083,27.81c-5.387,7.731-13.313,12.846-22.324,14.402
	c-8.539,1.472-17.511-0.6-24.612-5.689c-6.736-4.828-11.134-11.858-12.384-19.797C15.99,41.306,17.925,33.5,22.48,27.38
	c4.273-5.741,10.41-9.417,17.281-10.352c6.446-0.875,13.09,0.932,18.226,4.964c4.741,3.726,7.688,8.975,8.295,14.78
	c0.565,5.425-1.138,10.907-4.673,15.045c-3.193,3.737-7.565,5.932-12.312,6.184c-4.381,0.228-8.821-1.455-11.896-4.51
	c-2.712-2.697-4.113-6.218-3.941-9.912c0.16-3.446,2.041-6.915,4.792-8.836c2.321-1.621,5.057-2.055,7.7-1.223
	c2.197,0.693,3.417,3.035,2.725,5.231c-0.692,2.198-3.037,3.418-5.23,2.726c-0.116-0.037-0.185-0.06-0.419,0.104
	c-0.632,0.441-1.197,1.532-1.237,2.382c-0.062,1.352,0.438,2.566,1.488,3.607c1.411,1.403,3.553,2.195,5.578,2.1
	c3.128-0.166,5.211-1.871,6.408-3.271c2.027-2.373,3.045-5.647,2.717-8.762c-0.367-3.54-2.197-6.767-5.148-9.086
	c-3.369-2.646-7.722-3.837-11.948-3.259c-4.631,0.629-8.79,3.139-11.712,7.066c-3.226,4.333-4.597,9.851-3.765,15.141
	c0.899,5.713,4.096,10.798,9.002,14.314c5.3,3.797,11.981,5.347,18.334,4.248c6.797-1.174,12.799-5.062,16.901-10.95
	c4.368-6.267,6.089-14.114,4.722-21.529c-1.451-7.876-6.035-14.794-12.903-19.479c-7.239-4.937-16.251-6.826-24.727-5.188
	c-8.955,1.734-16.786,7.012-22.051,14.864c-5.504,8.208-7.563,18.386-5.646,27.924c2.014,10.032,7.991,18.775,16.827,24.62
	c9.177,6.069,20.52,8.293,31.12,6.1c19.025-3.936,33.611-21.206,34.679-41.066c0.124-2.3,2.08-4.06,4.39-3.94
	c2.3,0.124,4.064,2.089,3.939,4.39C98.727,65.385,81.35,85.904,58.677,90.593C55.449,91.258,52.167,91.588,48.885,91.588z"></path></svg>