<?xml version="1.0" encoding="utf-8"?>
<!-- Generator: Adobe Illustrator 21.0.0, SVG Export Plug-In . SVG Version: 6.00 Build 0)  -->
<svg version="1.1" id="Layer_1" xmlns="http://www.w3.org/2000/svg" xmlns:xlink="http://www.w3.org/1999/xlink" x="0px" y="0px"
	 viewBox="0 0 512 512" style="enable-background:new 0 0 512 512;" xml:space="preserve">
<g>
	<path d="M388.3,13.9L264.6,237.3H512L388.3,13.9z M388.3,96.7l55.6,100.5H332.6L388.3,96.7z M120.4,257.4C54,257.4,0,311.3,0,377.7
		s54,120.4,120.4,120.4s120.4-54,120.4-120.4S186.7,257.4,120.4,257.4z M280.8,277.4v220.6h220.6V277.4H280.8z M120.4,297.5
		c44.3,0,80.2,36,80.2,80.2s-36,80.2-80.2,80.2s-80.2-36-80.2-80.2S76.1,297.5,120.4,297.5z M320.9,317.5h140.4V458H320.9V317.5z"/>
</g>
</svg>
